<?xml version="1.0" encoding="UTF-8"?>
<!DOCTYPE svg PUBLIC "-//W3C//DTD SVG 1.1//EN" "http://www.w3.org/Graphics/SVG/1.1/DTD/svg11.dtd">
<svg xmlns="http://www.w3.org/2000/svg" version="1.1" width="4096px" height="4096px" style="shape-rendering:geometricPrecision; text-rendering:geometricPrecision; image-rendering:optimizeQuality; fill-rule:evenodd; clip-rule:evenodd" xmlns:xlink="http://www.w3.org/1999/xlink">
<g><path style="opacity:1" fill="#fefefe" d="M -0.5,-0.5 C 1364.83,-0.5 2730.17,-0.5 4095.5,-0.5C 4095.5,1364.83 4095.5,2730.17 4095.5,4095.5C 2730.17,4095.5 1364.83,4095.5 -0.5,4095.5C -0.5,2730.17 -0.5,1364.83 -0.5,-0.5 Z"/></g>
<g><path style="opacity:1" fill="#000000" d="M 1986.5,1116.5 C 2063.87,1113.01 2138.2,1126.18 2209.5,1156C 2291.77,1194.93 2354.6,1254.43 2398,1334.5C 2437.14,1410.4 2458.48,1491.06 2462,1576.5C 2466.8,1696.38 2447.8,1812.38 2405,1924.5C 2335.1,2106.2 2221.93,2254.7 2065.5,2370C 1956.55,2446.51 1836.21,2496.68 1704.5,2520.5C 1725.71,2531.18 1747.71,2540.02 1770.5,2547C 1813.17,2573.67 1855.83,2600.33 1898.5,2627C 1900.17,2627.67 1901.83,2627.67 1903.5,2627C 2007.43,2592.39 2101.43,2540.72 2185.5,2472C 2297.73,2379.15 2390.56,2270.32 2464,2145.5C 2556.02,1990.45 2614.02,1823.45 2638,1644.5C 2647.32,1571.38 2646.65,1498.38 2636,1425.5C 2627.87,1376.09 2610.87,1330.09 2585,1287.5C 2548.41,1232.6 2497.58,1198.77 2432.5,1186C 2416.46,1183.79 2400.46,1181.46 2384.5,1179C 2380.27,1177.89 2376.27,1176.22 2372.5,1174C 2366.22,1169.17 2365.06,1163.34 2369,1156.5C 2379.34,1146.33 2391.84,1141.33 2406.5,1141.5C 2560.97,1161.15 2661.47,1245.15 2708,1393.5C 2729.45,1469.72 2737.45,1547.38 2732,1626.5C 2722.22,1745.63 2694.22,1860.29 2648,1970.5C 2563.79,2170.14 2440.96,2341.97 2279.5,2486C 2207.56,2548.54 2128.56,2600.87 2042.5,2643C 2019.5,2653.67 1996.17,2663.5 1972.5,2672.5C 2058.99,2729.26 2146.99,2783.76 2236.5,2836C 2304.59,2874.05 2374.59,2908.38 2446.5,2939C 2511.1,2965.09 2577.43,2985.75 2645.5,3001C 2744.17,3022.72 2843.5,3026.38 2943.5,3012C 2991.5,3002.67 3037.5,2987.33 3081.5,2966C 3118.33,2947.51 3149.5,2922.01 3175,2889.5C 3205.28,2845.49 3211.62,2798.16 3194,2747.5C 3189.1,2733.69 3183.1,2720.36 3176,2707.5C 3168.69,2686.15 3176.19,2676.65 3198.5,2679C 3208.56,2682.62 3216.72,2688.78 3223,2697.5C 3254.07,2758.02 3268.24,2822.35 3265.5,2890.5C 3264.58,2945.44 3246.08,2993.44 3210,3034.5C 3166.61,3080.96 3114.11,3112.8 3052.5,3130C 3008.36,3142.35 2963.36,3149.02 2917.5,3150C 2782.07,3154.22 2651.74,3130.56 2526.5,3079C 2434.7,3040.44 2347.36,2994.11 2264.5,2940C 2225.56,2914.06 2186.89,2887.72 2148.5,2861C 2071.83,2805 1995.17,2749 1918.5,2693C 1898.54,2697.19 1878.54,2701.53 1858.5,2706C 1719.53,2730.02 1582.53,2721.69 1447.5,2681C 1345.04,2649.39 1256.54,2595.55 1182,2519.5C 1098.03,2425.74 1050.03,2315.74 1038,2189.5C 1024.89,2033.52 1051.22,1884.52 1117,1742.5C 1185.92,1597.22 1281.75,1472.38 1404.5,1368C 1497.37,1288.52 1600.7,1225.19 1714.5,1178C 1760.41,1159.92 1807.41,1145.25 1855.5,1134C 1898.85,1124.66 1942.52,1118.82 1986.5,1116.5 Z"/></g>
<g><path style="opacity:1" fill="#fefefe" d="M 1998.5,1170.5 C 2022.5,1170.33 2046.5,1170.5 2070.5,1171C 2122.09,1173.75 2170.76,1187.09 2216.5,1211C 2271.17,1243.01 2311.01,1288.18 2336,1346.5C 2362.5,1414.69 2373.17,1485.36 2368,1558.5C 2360.91,1654.3 2339.91,1746.96 2305,1836.5C 2234.24,2017.52 2126.41,2172.35 1981.5,2301C 1914.33,2358.78 1840,2405.78 1758.5,2442C 1733.59,2452.45 1708.26,2461.79 1682.5,2470C 1654.43,2471.03 1626.43,2470.03 1598.5,2467C 1569.81,2463.85 1541.14,2460.52 1512.5,2457C 1484.1,2453.88 1460.27,2462.71 1441,2483.5C 1429.77,2499.91 1427.43,2517.58 1434,2536.5C 1445.43,2559.24 1463.93,2571.74 1489.5,2574C 1516.8,2574.71 1543.8,2572.05 1570.5,2566C 1598.63,2559.35 1626.63,2552.18 1654.5,2544.5C 1722.61,2569.05 1786.27,2601.72 1845.5,2642.5C 1816.62,2650.11 1787.29,2655.28 1757.5,2658C 1707.58,2662.22 1657.58,2663.55 1607.5,2662C 1527.66,2658.12 1451.99,2638.46 1380.5,2603C 1290.02,2554.85 1226.85,2482.68 1191,2386.5C 1163.61,2306.08 1152.61,2223.41 1158,2138.5C 1166.44,2045.64 1188.11,1955.97 1223,1869.5C 1301.58,1675.97 1417.41,1508.47 1570.5,1367C 1630.64,1312.92 1696.64,1267.26 1768.5,1230C 1816.74,1206.25 1867.41,1189.92 1920.5,1181C 1946.53,1176.68 1972.53,1173.18 1998.5,1170.5 Z"/></g>
</svg>
